<?xml version="1.0" encoding="utf-8"?>
<svg xmlns="http://www.w3.org/2000/svg" xmlns:xlink="http://www.w3.org/1999/xlink" width="600" height="400" viewBox="0 0 2400 1600">
<defs>
  <clipPath id="clip950">
    <rect x="0" y="0" width="2400" height="1600"/>
  </clipPath>
</defs>
<path clip-path="url(#clip950)" d="
M0 1600 L2400 1600 L2400 0 L0 0  Z
  " fill="#ffffff" fill-rule="evenodd" fill-opacity="1"/>
<defs>
  <clipPath id="clip951">
    <rect x="480" y="0" width="1681" height="1600"/>
  </clipPath>
</defs>
<path clip-path="url(#clip950)" d="
M219.38 1423.18 L2352.76 1423.18 L2352.76 123.472 L219.38 123.472  Z
  " fill="#ffffff" fill-rule="evenodd" fill-opacity="1"/>
<defs>
  <clipPath id="clip952">
    <rect x="219" y="123" width="2134" height="1301"/>
  </clipPath>
</defs>
<polyline clip-path="url(#clip952)" style="stroke:#000000; stroke-linecap:butt; stroke-linejoin:round; stroke-width:2; stroke-opacity:0.1; fill:none" points="
  275.725,1423.18 275.725,123.472 
  "/>
<polyline clip-path="url(#clip952)" style="stroke:#000000; stroke-linecap:butt; stroke-linejoin:round; stroke-width:2; stroke-opacity:0.1; fill:none" points="
  679.056,1423.18 679.056,123.472 
  "/>
<polyline clip-path="url(#clip952)" style="stroke:#000000; stroke-linecap:butt; stroke-linejoin:round; stroke-width:2; stroke-opacity:0.1; fill:none" points="
  1082.39,1423.18 1082.39,123.472 
  "/>
<polyline clip-path="url(#clip952)" style="stroke:#000000; stroke-linecap:butt; stroke-linejoin:round; stroke-width:2; stroke-opacity:0.1; fill:none" points="
  1485.72,1423.18 1485.72,123.472 
  "/>
<polyline clip-path="url(#clip952)" style="stroke:#000000; stroke-linecap:butt; stroke-linejoin:round; stroke-width:2; stroke-opacity:0.1; fill:none" points="
  1889.05,1423.18 1889.05,123.472 
  "/>
<polyline clip-path="url(#clip952)" style="stroke:#000000; stroke-linecap:butt; stroke-linejoin:round; stroke-width:2; stroke-opacity:0.1; fill:none" points="
  2292.38,1423.18 2292.38,123.472 
  "/>
<polyline clip-path="url(#clip950)" style="stroke:#000000; stroke-linecap:butt; stroke-linejoin:round; stroke-width:4; stroke-opacity:1; fill:none" points="
  219.38,1423.18 2352.76,1423.18 
  "/>
<polyline clip-path="url(#clip950)" style="stroke:#000000; stroke-linecap:butt; stroke-linejoin:round; stroke-width:4; stroke-opacity:1; fill:none" points="
  275.725,1423.18 275.725,1404.28 
  "/>
<polyline clip-path="url(#clip950)" style="stroke:#000000; stroke-linecap:butt; stroke-linejoin:round; stroke-width:4; stroke-opacity:1; fill:none" points="
  679.056,1423.18 679.056,1404.28 
  "/>
<polyline clip-path="url(#clip950)" style="stroke:#000000; stroke-linecap:butt; stroke-linejoin:round; stroke-width:4; stroke-opacity:1; fill:none" points="
  1082.39,1423.18 1082.39,1404.28 
  "/>
<polyline clip-path="url(#clip950)" style="stroke:#000000; stroke-linecap:butt; stroke-linejoin:round; stroke-width:4; stroke-opacity:1; fill:none" points="
  1485.72,1423.18 1485.72,1404.28 
  "/>
<polyline clip-path="url(#clip950)" style="stroke:#000000; stroke-linecap:butt; stroke-linejoin:round; stroke-width:4; stroke-opacity:1; fill:none" points="
  1889.05,1423.18 1889.05,1404.28 
  "/>
<polyline clip-path="url(#clip950)" style="stroke:#000000; stroke-linecap:butt; stroke-linejoin:round; stroke-width:4; stroke-opacity:1; fill:none" points="
  2292.38,1423.18 2292.38,1404.28 
  "/>
<path clip-path="url(#clip950)" d="M275.725 1454.1 Q272.114 1454.1 270.286 1457.66 Q268.48 1461.2 268.48 1468.33 Q268.48 1475.44 270.286 1479.01 Q272.114 1482.55 275.725 1482.55 Q279.36 1482.55 281.165 1479.01 Q282.994 1475.44 282.994 1468.33 Q282.994 1461.2 281.165 1457.66 Q279.36 1454.1 275.725 1454.1 M275.725 1450.39 Q281.536 1450.39 284.591 1455 Q287.67 1459.58 287.67 1468.33 Q287.67 1477.06 284.591 1481.67 Q281.536 1486.25 275.725 1486.25 Q269.915 1486.25 266.837 1481.67 Q263.781 1477.06 263.781 1468.33 Q263.781 1459.58 266.837 1455 Q269.915 1450.39 275.725 1450.39 Z" fill="#000000" fill-rule="evenodd" fill-opacity="1" /><path clip-path="url(#clip950)" d="M638.662 1481.64 L646.301 1481.64 L646.301 1455.28 L637.991 1456.95 L637.991 1452.69 L646.255 1451.02 L650.931 1451.02 L650.931 1481.64 L658.57 1481.64 L658.57 1485.58 L638.662 1485.58 L638.662 1481.64 Z" fill="#000000" fill-rule="evenodd" fill-opacity="1" /><path clip-path="url(#clip950)" d="M678.014 1454.1 Q674.403 1454.1 672.574 1457.66 Q670.769 1461.2 670.769 1468.33 Q670.769 1475.44 672.574 1479.01 Q674.403 1482.55 678.014 1482.55 Q681.648 1482.55 683.454 1479.01 Q685.283 1475.44 685.283 1468.33 Q685.283 1461.2 683.454 1457.66 Q681.648 1454.1 678.014 1454.1 M678.014 1450.39 Q683.824 1450.39 686.88 1455 Q689.959 1459.58 689.959 1468.33 Q689.959 1477.06 686.88 1481.67 Q683.824 1486.25 678.014 1486.25 Q672.204 1486.25 669.125 1481.67 Q666.07 1477.06 666.07 1468.33 Q666.07 1459.58 669.125 1455 Q672.204 1450.39 678.014 1450.39 Z" fill="#000000" fill-rule="evenodd" fill-opacity="1" /><path clip-path="url(#clip950)" d="M708.176 1454.1 Q704.565 1454.1 702.736 1457.66 Q700.931 1461.2 700.931 1468.33 Q700.931 1475.44 702.736 1479.01 Q704.565 1482.55 708.176 1482.55 Q711.81 1482.55 713.616 1479.01 Q715.444 1475.44 715.444 1468.33 Q715.444 1461.2 713.616 1457.66 Q711.81 1454.1 708.176 1454.1 M708.176 1450.39 Q713.986 1450.39 717.042 1455 Q720.12 1459.58 720.12 1468.33 Q720.12 1477.06 717.042 1481.67 Q713.986 1486.25 708.176 1486.25 Q702.366 1486.25 699.287 1481.67 Q696.232 1477.06 696.232 1468.33 Q696.232 1459.58 699.287 1455 Q702.366 1450.39 708.176 1450.39 Z" fill="#000000" fill-rule="evenodd" fill-opacity="1" /><path clip-path="url(#clip950)" d="M1046.08 1481.64 L1062.4 1481.64 L1062.4 1485.58 L1040.45 1485.58 L1040.45 1481.64 Q1043.12 1478.89 1047.7 1474.26 Q1052.31 1469.61 1053.49 1468.27 Q1055.73 1465.74 1056.61 1464.01 Q1057.51 1462.25 1057.51 1460.56 Q1057.51 1457.8 1055.57 1456.07 Q1053.65 1454.33 1050.55 1454.33 Q1048.35 1454.33 1045.89 1455.09 Q1043.46 1455.86 1040.69 1457.41 L1040.69 1452.69 Q1043.51 1451.55 1045.96 1450.97 Q1048.42 1450.39 1050.45 1450.39 Q1055.82 1450.39 1059.02 1453.08 Q1062.21 1455.77 1062.21 1460.26 Q1062.21 1462.39 1061.4 1464.31 Q1060.62 1466.2 1058.51 1468.8 Q1057.93 1469.47 1054.83 1472.69 Q1051.73 1475.88 1046.08 1481.64 Z" fill="#000000" fill-rule="evenodd" fill-opacity="1" /><path clip-path="url(#clip950)" d="M1082.21 1454.1 Q1078.6 1454.1 1076.77 1457.66 Q1074.97 1461.2 1074.97 1468.33 Q1074.97 1475.44 1076.77 1479.01 Q1078.6 1482.55 1082.21 1482.55 Q1085.85 1482.55 1087.65 1479.01 Q1089.48 1475.44 1089.48 1468.33 Q1089.48 1461.2 1087.65 1457.66 Q1085.85 1454.1 1082.21 1454.1 M1082.21 1450.39 Q1088.02 1450.39 1091.08 1455 Q1094.16 1459.58 1094.16 1468.33 Q1094.16 1477.06 1091.08 1481.67 Q1088.02 1486.25 1082.21 1486.25 Q1076.4 1486.25 1073.32 1481.67 Q1070.27 1477.06 1070.27 1468.33 Q1070.27 1459.58 1073.32 1455 Q1076.4 1450.39 1082.21 1450.39 Z" fill="#000000" fill-rule="evenodd" fill-opacity="1" /><path clip-path="url(#clip950)" d="M1112.37 1454.1 Q1108.76 1454.1 1106.93 1457.66 Q1105.13 1461.2 1105.13 1468.33 Q1105.13 1475.44 1106.93 1479.01 Q1108.76 1482.55 1112.37 1482.55 Q1116.01 1482.55 1117.81 1479.01 Q1119.64 1475.44 1119.64 1468.33 Q1119.64 1461.2 1117.81 1457.66 Q1116.01 1454.1 1112.37 1454.1 M1112.37 1450.39 Q1118.18 1450.39 1121.24 1455 Q1124.32 1459.58 1124.32 1468.33 Q1124.32 1477.06 1121.24 1481.67 Q1118.18 1486.25 1112.37 1486.25 Q1106.56 1486.25 1103.49 1481.67 Q1100.43 1477.06 1100.43 1468.33 Q1100.43 1459.58 1103.49 1455 Q1106.56 1450.39 1112.37 1450.39 Z" fill="#000000" fill-rule="evenodd" fill-opacity="1" /><path clip-path="url(#clip950)" d="M1459.48 1466.95 Q1462.83 1467.66 1464.71 1469.93 Q1466.61 1472.2 1466.61 1475.53 Q1466.61 1480.65 1463.09 1483.45 Q1459.57 1486.25 1453.09 1486.25 Q1450.91 1486.25 1448.6 1485.81 Q1446.31 1485.39 1443.85 1484.54 L1443.85 1480.02 Q1445.8 1481.16 1448.11 1481.74 Q1450.43 1482.32 1452.95 1482.32 Q1457.35 1482.32 1459.64 1480.58 Q1461.96 1478.84 1461.96 1475.53 Q1461.96 1472.48 1459.8 1470.77 Q1457.67 1469.03 1453.85 1469.03 L1449.83 1469.03 L1449.83 1465.19 L1454.04 1465.19 Q1457.49 1465.19 1459.32 1463.82 Q1461.14 1462.43 1461.14 1459.84 Q1461.14 1457.18 1459.25 1455.77 Q1457.37 1454.33 1453.85 1454.33 Q1451.93 1454.33 1449.73 1454.75 Q1447.53 1455.16 1444.9 1456.04 L1444.9 1451.88 Q1447.56 1451.14 1449.87 1450.77 Q1452.21 1450.39 1454.27 1450.39 Q1459.59 1450.39 1462.7 1452.83 Q1465.8 1455.23 1465.8 1459.35 Q1465.8 1462.22 1464.15 1464.21 Q1462.51 1466.18 1459.48 1466.95 Z" fill="#000000" fill-rule="evenodd" fill-opacity="1" /><path clip-path="url(#clip950)" d="M1485.47 1454.1 Q1481.86 1454.1 1480.03 1457.66 Q1478.23 1461.2 1478.23 1468.33 Q1478.23 1475.44 1480.03 1479.01 Q1481.86 1482.55 1485.47 1482.55 Q1489.11 1482.55 1490.91 1479.01 Q1492.74 1475.44 1492.74 1468.33 Q1492.74 1461.2 1490.91 1457.66 Q1489.11 1454.1 1485.47 1454.1 M1485.47 1450.39 Q1491.28 1450.39 1494.34 1455 Q1497.42 1459.58 1497.42 1468.33 Q1497.42 1477.06 1494.34 1481.67 Q1491.28 1486.25 1485.47 1486.25 Q1479.66 1486.25 1476.58 1481.67 Q1473.53 1477.06 1473.53 1468.33 Q1473.53 1459.58 1476.58 1455 Q1479.66 1450.39 1485.47 1450.39 Z" fill="#000000" fill-rule="evenodd" fill-opacity="1" /><path clip-path="url(#clip950)" d="M1515.64 1454.1 Q1512.02 1454.1 1510.2 1457.66 Q1508.39 1461.2 1508.39 1468.33 Q1508.39 1475.44 1510.2 1479.01 Q1512.02 1482.55 1515.64 1482.55 Q1519.27 1482.55 1521.08 1479.01 Q1522.9 1475.44 1522.9 1468.33 Q1522.9 1461.2 1521.08 1457.66 Q1519.27 1454.1 1515.64 1454.1 M1515.64 1450.39 Q1521.45 1450.39 1524.5 1455 Q1527.58 1459.58 1527.58 1468.33 Q1527.58 1477.06 1524.5 1481.67 Q1521.45 1486.25 1515.64 1486.25 Q1509.83 1486.25 1506.75 1481.67 Q1503.69 1477.06 1503.69 1468.33 Q1503.69 1459.58 1506.75 1455 Q1509.83 1450.39 1515.64 1450.39 Z" fill="#000000" fill-rule="evenodd" fill-opacity="1" /><path clip-path="url(#clip950)" d="M1862.14 1455.09 L1850.33 1473.54 L1862.14 1473.54 L1862.14 1455.09 M1860.91 1451.02 L1866.79 1451.02 L1866.79 1473.54 L1871.72 1473.54 L1871.72 1477.43 L1866.79 1477.43 L1866.79 1485.58 L1862.14 1485.58 L1862.14 1477.43 L1846.54 1477.43 L1846.54 1472.92 L1860.91 1451.02 Z" fill="#000000" fill-rule="evenodd" fill-opacity="1" /><path clip-path="url(#clip950)" d="M1889.45 1454.1 Q1885.84 1454.1 1884.01 1457.66 Q1882.21 1461.2 1882.21 1468.33 Q1882.21 1475.44 1884.01 1479.01 Q1885.84 1482.55 1889.45 1482.55 Q1893.09 1482.55 1894.89 1479.01 Q1896.72 1475.44 1896.72 1468.33 Q1896.72 1461.2 1894.89 1457.66 Q1893.09 1454.1 1889.45 1454.1 M1889.45 1450.39 Q1895.26 1450.39 1898.32 1455 Q1901.4 1459.58 1901.4 1468.33 Q1901.4 1477.06 1898.32 1481.67 Q1895.26 1486.25 1889.45 1486.25 Q1883.64 1486.25 1880.56 1481.67 Q1877.51 1477.06 1877.51 1468.33 Q1877.51 1459.58 1880.56 1455 Q1883.64 1450.39 1889.45 1450.39 Z" fill="#000000" fill-rule="evenodd" fill-opacity="1" /><path clip-path="url(#clip950)" d="M1919.61 1454.1 Q1916 1454.1 1914.17 1457.66 Q1912.37 1461.2 1912.37 1468.33 Q1912.37 1475.44 1914.17 1479.01 Q1916 1482.55 1919.61 1482.55 Q1923.25 1482.55 1925.05 1479.01 Q1926.88 1475.44 1926.88 1468.33 Q1926.88 1461.2 1925.05 1457.66 Q1923.25 1454.1 1919.61 1454.1 M1919.61 1450.39 Q1925.42 1450.39 1928.48 1455 Q1931.56 1459.58 1931.56 1468.33 Q1931.56 1477.06 1928.48 1481.67 Q1925.42 1486.25 1919.61 1486.25 Q1913.8 1486.25 1910.73 1481.67 Q1907.67 1477.06 1907.67 1468.33 Q1907.67 1459.58 1910.73 1455 Q1913.8 1450.39 1919.61 1450.39 Z" fill="#000000" fill-rule="evenodd" fill-opacity="1" /><path clip-path="url(#clip950)" d="M2252 1451.02 L2270.35 1451.02 L2270.35 1454.96 L2256.28 1454.96 L2256.28 1463.43 Q2257.3 1463.08 2258.32 1462.92 Q2259.33 1462.73 2260.35 1462.73 Q2266.14 1462.73 2269.52 1465.9 Q2272.9 1469.08 2272.9 1474.49 Q2272.9 1480.07 2269.43 1483.17 Q2265.95 1486.25 2259.63 1486.25 Q2257.46 1486.25 2255.19 1485.88 Q2252.94 1485.51 2250.54 1484.77 L2250.54 1480.07 Q2252.62 1481.2 2254.84 1481.76 Q2257.07 1482.32 2259.54 1482.32 Q2263.55 1482.32 2265.88 1480.21 Q2268.22 1478.1 2268.22 1474.49 Q2268.22 1470.88 2265.88 1468.77 Q2263.55 1466.67 2259.54 1466.67 Q2257.67 1466.67 2255.79 1467.08 Q2253.94 1467.5 2252 1468.38 L2252 1451.02 Z" fill="#000000" fill-rule="evenodd" fill-opacity="1" /><path clip-path="url(#clip950)" d="M2292.11 1454.1 Q2288.5 1454.1 2286.67 1457.66 Q2284.87 1461.2 2284.87 1468.33 Q2284.87 1475.44 2286.67 1479.01 Q2288.5 1482.55 2292.11 1482.55 Q2295.75 1482.55 2297.55 1479.01 Q2299.38 1475.44 2299.38 1468.33 Q2299.38 1461.2 2297.55 1457.66 Q2295.75 1454.1 2292.11 1454.1 M2292.11 1450.39 Q2297.92 1450.39 2300.98 1455 Q2304.06 1459.58 2304.06 1468.33 Q2304.06 1477.06 2300.98 1481.67 Q2297.92 1486.25 2292.11 1486.25 Q2286.3 1486.25 2283.22 1481.67 Q2280.17 1477.06 2280.17 1468.33 Q2280.17 1459.58 2283.22 1455 Q2286.3 1450.39 2292.11 1450.39 Z" fill="#000000" fill-rule="evenodd" fill-opacity="1" /><path clip-path="url(#clip950)" d="M2322.27 1454.1 Q2318.66 1454.1 2316.83 1457.66 Q2315.03 1461.2 2315.03 1468.33 Q2315.03 1475.44 2316.83 1479.01 Q2318.66 1482.55 2322.27 1482.55 Q2325.91 1482.55 2327.71 1479.01 Q2329.54 1475.44 2329.54 1468.33 Q2329.54 1461.2 2327.71 1457.66 Q2325.91 1454.1 2322.27 1454.1 M2322.27 1450.39 Q2328.08 1450.39 2331.14 1455 Q2334.22 1459.58 2334.22 1468.33 Q2334.22 1477.06 2331.14 1481.67 Q2328.08 1486.25 2322.27 1486.25 Q2316.46 1486.25 2313.38 1481.67 Q2310.33 1477.06 2310.33 1468.33 Q2310.33 1459.58 2313.38 1455 Q2316.46 1450.39 2322.27 1450.39 Z" fill="#000000" fill-rule="evenodd" fill-opacity="1" /><path clip-path="url(#clip950)" d="M1174.08 1520.52 L1204.13 1520.52 L1204.13 1525.93 L1180.51 1525.93 L1180.51 1540 L1203.14 1540 L1203.14 1545.41 L1180.51 1545.41 L1180.51 1562.63 L1204.7 1562.63 L1204.7 1568.04 L1174.08 1568.04 L1174.08 1520.52 Z" fill="#000000" fill-rule="evenodd" fill-opacity="1" /><path clip-path="url(#clip950)" d="M1220.68 1562.7 L1220.68 1581.6 L1214.79 1581.6 L1214.79 1532.4 L1220.68 1532.4 L1220.68 1537.81 Q1222.52 1534.62 1225.32 1533.1 Q1228.16 1531.54 1232.07 1531.54 Q1238.56 1531.54 1242.61 1536.69 Q1246.68 1541.85 1246.68 1550.25 Q1246.68 1558.65 1242.61 1563.81 Q1238.56 1568.97 1232.07 1568.97 Q1228.16 1568.97 1225.32 1567.44 Q1222.52 1565.88 1220.68 1562.7 M1240.6 1550.25 Q1240.6 1543.79 1237.93 1540.13 Q1235.29 1536.44 1230.64 1536.44 Q1225.99 1536.44 1223.32 1540.13 Q1220.68 1543.79 1220.68 1550.25 Q1220.68 1556.71 1223.32 1560.4 Q1225.99 1564.07 1230.64 1564.07 Q1235.29 1564.07 1237.93 1560.4 Q1240.6 1556.71 1240.6 1550.25 Z" fill="#000000" fill-rule="evenodd" fill-opacity="1" /><path clip-path="url(#clip950)" d="M1270.2 1536.5 Q1265.49 1536.5 1262.75 1540.19 Q1260.02 1543.85 1260.02 1550.25 Q1260.02 1556.65 1262.72 1560.34 Q1265.46 1564 1270.2 1564 Q1274.88 1564 1277.62 1560.31 Q1280.35 1556.62 1280.35 1550.25 Q1280.35 1543.92 1277.62 1540.23 Q1274.88 1536.5 1270.2 1536.5 M1270.2 1531.54 Q1277.84 1531.54 1282.2 1536.5 Q1286.56 1541.47 1286.56 1550.25 Q1286.56 1559 1282.2 1564 Q1277.84 1568.97 1270.2 1568.97 Q1262.53 1568.97 1258.17 1564 Q1253.84 1559 1253.84 1550.25 Q1253.84 1541.47 1258.17 1536.5 Q1262.53 1531.54 1270.2 1531.54 Z" fill="#000000" fill-rule="evenodd" fill-opacity="1" /><path clip-path="url(#clip950)" d="M1321.92 1533.76 L1321.92 1539.24 Q1319.44 1537.87 1316.93 1537.2 Q1314.44 1536.5 1311.9 1536.5 Q1306.2 1536.5 1303.05 1540.13 Q1299.9 1543.73 1299.9 1550.25 Q1299.9 1556.78 1303.05 1560.4 Q1306.2 1564 1311.9 1564 Q1314.44 1564 1316.93 1563.33 Q1319.44 1562.63 1321.92 1561.26 L1321.92 1566.68 Q1319.47 1567.82 1316.83 1568.39 Q1314.22 1568.97 1311.26 1568.97 Q1303.21 1568.97 1298.47 1563.91 Q1293.72 1558.85 1293.72 1550.25 Q1293.72 1541.53 1298.5 1536.53 Q1303.3 1531.54 1311.64 1531.54 Q1314.35 1531.54 1316.93 1532.11 Q1319.5 1532.65 1321.92 1533.76 Z" fill="#000000" fill-rule="evenodd" fill-opacity="1" /><path clip-path="url(#clip950)" d="M1361.74 1546.53 L1361.74 1568.04 L1355.88 1568.04 L1355.88 1546.72 Q1355.88 1541.66 1353.91 1539.14 Q1351.94 1536.63 1347.99 1536.63 Q1343.25 1536.63 1340.51 1539.65 Q1337.77 1542.68 1337.77 1547.9 L1337.77 1568.04 L1331.89 1568.04 L1331.89 1518.52 L1337.77 1518.52 L1337.77 1537.93 Q1339.87 1534.72 1342.71 1533.13 Q1345.57 1531.54 1349.3 1531.54 Q1355.44 1531.54 1358.59 1535.36 Q1361.74 1539.14 1361.74 1546.53 Z" fill="#000000" fill-rule="evenodd" fill-opacity="1" /><path clip-path="url(#clip950)" d="M1396.15 1533.45 L1396.15 1538.98 Q1393.66 1537.71 1390.99 1537.07 Q1388.32 1536.44 1385.45 1536.44 Q1381.09 1536.44 1378.9 1537.77 Q1376.73 1539.11 1376.73 1541.79 Q1376.73 1543.82 1378.29 1545 Q1379.85 1546.15 1384.56 1547.2 L1386.57 1547.64 Q1392.81 1548.98 1395.41 1551.43 Q1398.06 1553.85 1398.06 1558.21 Q1398.06 1563.17 1394.11 1566.07 Q1390.2 1568.97 1383.32 1568.97 Q1380.46 1568.97 1377.34 1568.39 Q1374.25 1567.85 1370.81 1566.74 L1370.81 1560.69 Q1374.06 1562.38 1377.21 1563.24 Q1380.36 1564.07 1383.45 1564.07 Q1387.59 1564.07 1389.81 1562.66 Q1392.04 1561.23 1392.04 1558.65 Q1392.04 1556.27 1390.42 1554.99 Q1388.83 1553.72 1383.38 1552.54 L1381.35 1552.07 Q1375.9 1550.92 1373.49 1548.56 Q1371.07 1546.18 1371.07 1542.04 Q1371.07 1537.01 1374.63 1534.27 Q1378.2 1531.54 1384.75 1531.54 Q1388 1531.54 1390.86 1532.01 Q1393.73 1532.49 1396.15 1533.45 Z" fill="#000000" fill-rule="evenodd" fill-opacity="1" /><polyline clip-path="url(#clip952)" style="stroke:#000000; stroke-linecap:butt; stroke-linejoin:round; stroke-width:2; stroke-opacity:0.1; fill:none" points="
  219.38,1407.51 2352.76,1407.51 
  "/>
<polyline clip-path="url(#clip952)" style="stroke:#000000; stroke-linecap:butt; stroke-linejoin:round; stroke-width:2; stroke-opacity:0.1; fill:none" points="
  219.38,1071.31 2352.76,1071.31 
  "/>
<polyline clip-path="url(#clip952)" style="stroke:#000000; stroke-linecap:butt; stroke-linejoin:round; stroke-width:2; stroke-opacity:0.1; fill:none" points="
  219.38,735.105 2352.76,735.105 
  "/>
<polyline clip-path="url(#clip952)" style="stroke:#000000; stroke-linecap:butt; stroke-linejoin:round; stroke-width:2; stroke-opacity:0.1; fill:none" points="
  219.38,398.904 2352.76,398.904 
  "/>
<polyline clip-path="url(#clip950)" style="stroke:#000000; stroke-linecap:butt; stroke-linejoin:round; stroke-width:4; stroke-opacity:1; fill:none" points="
  219.38,1423.18 219.38,123.472 
  "/>
<polyline clip-path="url(#clip950)" style="stroke:#000000; stroke-linecap:butt; stroke-linejoin:round; stroke-width:4; stroke-opacity:1; fill:none" points="
  219.38,1407.51 238.278,1407.51 
  "/>
<polyline clip-path="url(#clip950)" style="stroke:#000000; stroke-linecap:butt; stroke-linejoin:round; stroke-width:4; stroke-opacity:1; fill:none" points="
  219.38,1071.31 238.278,1071.31 
  "/>
<polyline clip-path="url(#clip950)" style="stroke:#000000; stroke-linecap:butt; stroke-linejoin:round; stroke-width:4; stroke-opacity:1; fill:none" points="
  219.38,735.105 238.278,735.105 
  "/>
<polyline clip-path="url(#clip950)" style="stroke:#000000; stroke-linecap:butt; stroke-linejoin:round; stroke-width:4; stroke-opacity:1; fill:none" points="
  219.38,398.904 238.278,398.904 
  "/>
<path clip-path="url(#clip950)" d="M126.205 1393.3 Q122.593 1393.3 120.765 1396.87 Q118.959 1400.41 118.959 1407.54 Q118.959 1414.65 120.765 1418.21 Q122.593 1421.75 126.205 1421.75 Q129.839 1421.75 131.644 1418.21 Q133.473 1414.65 133.473 1407.54 Q133.473 1400.41 131.644 1396.87 Q129.839 1393.3 126.205 1393.3 M126.205 1389.6 Q132.015 1389.6 135.07 1394.21 Q138.149 1398.79 138.149 1407.54 Q138.149 1416.27 135.07 1420.87 Q132.015 1425.46 126.205 1425.46 Q120.394 1425.46 117.316 1420.87 Q114.26 1416.27 114.26 1407.54 Q114.26 1398.79 117.316 1394.21 Q120.394 1389.6 126.205 1389.6 Z" fill="#000000" fill-rule="evenodd" fill-opacity="1" /><path clip-path="url(#clip950)" d="M146.366 1418.91 L151.251 1418.91 L151.251 1424.79 L146.366 1424.79 L146.366 1418.91 Z" fill="#000000" fill-rule="evenodd" fill-opacity="1" /><path clip-path="url(#clip950)" d="M171.436 1393.3 Q167.825 1393.3 165.996 1396.87 Q164.19 1400.41 164.19 1407.54 Q164.19 1414.65 165.996 1418.21 Q167.825 1421.75 171.436 1421.75 Q175.07 1421.75 176.876 1418.21 Q178.704 1414.65 178.704 1407.54 Q178.704 1400.41 176.876 1396.87 Q175.07 1393.3 171.436 1393.3 M171.436 1389.6 Q177.246 1389.6 180.301 1394.21 Q183.38 1398.79 183.38 1407.54 Q183.38 1416.27 180.301 1420.87 Q177.246 1425.46 171.436 1425.46 Q165.626 1425.46 162.547 1420.87 Q159.491 1416.27 159.491 1407.54 Q159.491 1398.79 162.547 1394.21 Q165.626 1389.6 171.436 1389.6 Z" fill="#000000" fill-rule="evenodd" fill-opacity="1" /><path clip-path="url(#clip950)" d="M127.2 1057.1 Q123.589 1057.1 121.76 1060.67 Q119.955 1064.21 119.955 1071.34 Q119.955 1078.45 121.76 1082.01 Q123.589 1085.55 127.2 1085.55 Q130.834 1085.55 132.64 1082.01 Q134.468 1078.45 134.468 1071.34 Q134.468 1064.21 132.64 1060.67 Q130.834 1057.1 127.2 1057.1 M127.2 1053.4 Q133.01 1053.4 136.066 1058.01 Q139.144 1062.59 139.144 1071.34 Q139.144 1080.07 136.066 1084.67 Q133.01 1089.26 127.2 1089.26 Q121.39 1089.26 118.311 1084.67 Q115.256 1080.07 115.256 1071.34 Q115.256 1062.59 118.311 1058.01 Q121.39 1053.4 127.2 1053.4 Z" fill="#000000" fill-rule="evenodd" fill-opacity="1" /><path clip-path="url(#clip950)" d="M147.362 1082.71 L152.246 1082.71 L152.246 1088.59 L147.362 1088.59 L147.362 1082.71 Z" fill="#000000" fill-rule="evenodd" fill-opacity="1" /><path clip-path="url(#clip950)" d="M162.477 1054.03 L180.834 1054.03 L180.834 1057.96 L166.76 1057.96 L166.76 1066.43 Q167.778 1066.09 168.797 1065.92 Q169.815 1065.74 170.834 1065.74 Q176.621 1065.74 180.001 1068.91 Q183.38 1072.08 183.38 1077.5 Q183.38 1083.08 179.908 1086.18 Q176.436 1089.26 170.116 1089.26 Q167.94 1089.26 165.672 1088.89 Q163.427 1088.52 161.019 1087.78 L161.019 1083.08 Q163.102 1084.21 165.325 1084.77 Q167.547 1085.32 170.024 1085.32 Q174.028 1085.32 176.366 1083.22 Q178.704 1081.11 178.704 1077.5 Q178.704 1073.89 176.366 1071.78 Q174.028 1069.67 170.024 1069.67 Q168.149 1069.67 166.274 1070.09 Q164.422 1070.51 162.477 1071.39 L162.477 1054.03 Z" fill="#000000" fill-rule="evenodd" fill-opacity="1" /><path clip-path="url(#clip950)" d="M117.015 748.45 L124.654 748.45 L124.654 722.084 L116.343 723.751 L116.343 719.492 L124.607 717.825 L129.283 717.825 L129.283 748.45 L136.922 748.45 L136.922 752.385 L117.015 752.385 L117.015 748.45 Z" fill="#000000" fill-rule="evenodd" fill-opacity="1" /><path clip-path="url(#clip950)" d="M146.366 746.505 L151.251 746.505 L151.251 752.385 L146.366 752.385 L146.366 746.505 Z" fill="#000000" fill-rule="evenodd" fill-opacity="1" /><path clip-path="url(#clip950)" d="M171.436 720.904 Q167.825 720.904 165.996 724.468 Q164.19 728.01 164.19 735.14 Q164.19 742.246 165.996 745.811 Q167.825 749.352 171.436 749.352 Q175.07 749.352 176.876 745.811 Q178.704 742.246 178.704 735.14 Q178.704 728.01 176.876 724.468 Q175.07 720.904 171.436 720.904 M171.436 717.2 Q177.246 717.2 180.301 721.806 Q183.38 726.39 183.38 735.14 Q183.38 743.866 180.301 748.473 Q177.246 753.056 171.436 753.056 Q165.626 753.056 162.547 748.473 Q159.491 743.866 159.491 735.14 Q159.491 726.39 162.547 721.806 Q165.626 717.2 171.436 717.2 Z" fill="#000000" fill-rule="evenodd" fill-opacity="1" /><path clip-path="url(#clip950)" d="M118.01 412.249 L125.649 412.249 L125.649 385.884 L117.339 387.55 L117.339 383.291 L125.603 381.624 L130.279 381.624 L130.279 412.249 L137.917 412.249 L137.917 416.184 L118.01 416.184 L118.01 412.249 Z" fill="#000000" fill-rule="evenodd" fill-opacity="1" /><path clip-path="url(#clip950)" d="M147.362 410.305 L152.246 410.305 L152.246 416.184 L147.362 416.184 L147.362 410.305 Z" fill="#000000" fill-rule="evenodd" fill-opacity="1" /><path clip-path="url(#clip950)" d="M162.477 381.624 L180.834 381.624 L180.834 385.56 L166.76 385.56 L166.76 394.032 Q167.778 393.685 168.797 393.522 Q169.815 393.337 170.834 393.337 Q176.621 393.337 180.001 396.509 Q183.38 399.68 183.38 405.096 Q183.38 410.675 179.908 413.777 Q176.436 416.856 170.116 416.856 Q167.94 416.856 165.672 416.485 Q163.427 416.115 161.019 415.374 L161.019 410.675 Q163.102 411.809 165.325 412.365 Q167.547 412.921 170.024 412.921 Q174.028 412.921 176.366 410.814 Q178.704 408.708 178.704 405.096 Q178.704 401.485 176.366 399.379 Q174.028 397.272 170.024 397.272 Q168.149 397.272 166.274 397.689 Q164.422 398.106 162.477 398.985 L162.477 381.624 Z" fill="#000000" fill-rule="evenodd" fill-opacity="1" /><path clip-path="url(#clip950)" d="M16.4842 840.023 L16.4842 833.593 L58.5933 833.593 L58.5933 810.454 L64.0042 810.454 L64.0042 840.023 L16.4842 840.023 Z" fill="#000000" fill-rule="evenodd" fill-opacity="1" /><path clip-path="url(#clip950)" d="M32.4621 791.293 Q32.4621 796.004 36.1542 798.741 Q39.8145 801.478 46.212 801.478 Q52.6095 801.478 56.3017 798.773 Q59.9619 796.036 59.9619 791.293 Q59.9619 786.614 56.2698 783.877 Q52.5777 781.14 46.212 781.14 Q39.8781 781.14 36.186 783.877 Q32.4621 786.614 32.4621 791.293 M27.4968 791.293 Q27.4968 783.654 32.4621 779.294 Q37.4273 774.933 46.212 774.933 Q54.9649 774.933 59.9619 779.294 Q64.9272 783.654 64.9272 791.293 Q64.9272 798.964 59.9619 803.324 Q54.9649 807.653 46.212 807.653 Q37.4273 807.653 32.4621 803.324 Q27.4968 798.964 27.4968 791.293 Z" fill="#000000" fill-rule="evenodd" fill-opacity="1" /><path clip-path="url(#clip950)" d="M29.4065 742.5 L34.9447 742.5 Q33.6716 744.983 33.035 747.656 Q32.3984 750.33 32.3984 753.194 Q32.3984 757.555 33.7352 759.751 Q35.072 761.915 37.7456 761.915 Q39.7826 761.915 40.9603 760.356 Q42.1061 758.796 43.1565 754.086 L43.6021 752.08 Q44.9389 745.842 47.3897 743.232 Q49.8086 740.59 54.1691 740.59 Q59.1344 740.59 62.0308 744.537 Q64.9272 748.452 64.9272 755.327 Q64.9272 758.192 64.3543 761.311 Q63.8132 764.398 62.6992 767.836 L56.6518 767.836 Q58.3387 764.589 59.198 761.438 Q60.0256 758.287 60.0256 755.2 Q60.0256 751.062 58.6251 748.834 Q57.1929 746.606 54.6147 746.606 Q52.2276 746.606 50.9545 748.229 Q49.6813 749.821 48.5037 755.263 L48.0262 757.3 Q46.8804 762.743 44.5251 765.162 Q42.138 767.581 38.0002 767.581 Q32.9713 767.581 30.2341 764.016 Q27.4968 760.451 27.4968 753.895 Q27.4968 750.648 27.9743 747.784 Q28.4517 744.919 29.4065 742.5 Z" fill="#000000" fill-rule="evenodd" fill-opacity="1" /><path clip-path="url(#clip950)" d="M29.4065 708.539 L34.9447 708.539 Q33.6716 711.022 33.035 713.695 Q32.3984 716.369 32.3984 719.233 Q32.3984 723.594 33.7352 725.79 Q35.072 727.954 37.7456 727.954 Q39.7826 727.954 40.9603 726.395 Q42.1061 724.835 43.1565 720.125 L43.6021 718.119 Q44.9389 711.881 47.3897 709.271 Q49.8086 706.629 54.1691 706.629 Q59.1344 706.629 62.0308 710.576 Q64.9272 714.491 64.9272 721.366 Q64.9272 724.23 64.3543 727.35 Q63.8132 730.437 62.6992 733.875 L56.6518 733.875 Q58.3387 730.628 59.198 727.477 Q60.0256 724.326 60.0256 721.239 Q60.0256 717.101 58.6251 714.873 Q57.1929 712.645 54.6147 712.645 Q52.2276 712.645 50.9545 714.268 Q49.6813 715.86 48.5037 721.302 L48.0262 723.339 Q46.8804 728.782 44.5251 731.201 Q42.138 733.62 38.0002 733.62 Q32.9713 733.62 30.2341 730.055 Q27.4968 726.49 27.4968 719.934 Q27.4968 716.687 27.9743 713.823 Q28.4517 710.958 29.4065 708.539 Z" fill="#000000" fill-rule="evenodd" fill-opacity="1" /><path clip-path="url(#clip950)" d="M976.7 12.096 L984.883 12.096 L984.883 65.6895 L1014.33 65.6895 L1014.33 72.576 L976.7 72.576 L976.7 12.096 Z" fill="#000000" fill-rule="evenodd" fill-opacity="1" /><path clip-path="url(#clip950)" d="M1059.95 48.0275 L1059.95 51.6733 L1025.68 51.6733 Q1026.16 59.3701 1030.29 63.421 Q1034.47 67.4314 1041.88 67.4314 Q1046.17 67.4314 1050.18 66.3781 Q1054.23 65.3249 1058.2 63.2184 L1058.2 70.267 Q1054.19 71.9684 1049.98 72.8596 Q1045.77 73.7508 1041.43 73.7508 Q1030.58 73.7508 1024.22 67.4314 Q1017.9 61.1119 1017.9 50.3365 Q1017.9 39.1965 1023.89 32.6746 Q1029.93 26.1121 1040.14 26.1121 Q1049.29 26.1121 1054.6 32.0264 Q1059.95 37.9003 1059.95 48.0275 M1052.49 45.84 Q1052.41 39.7232 1049.05 36.0774 Q1045.73 32.4315 1040.22 32.4315 Q1033.98 32.4315 1030.21 35.9558 Q1026.49 39.4801 1025.92 45.8805 L1052.49 45.84 Z" fill="#000000" fill-rule="evenodd" fill-opacity="1" /><path clip-path="url(#clip950)" d="M1092.8 49.7694 Q1083.77 49.7694 1080.28 51.8354 Q1076.8 53.9013 1076.8 58.8839 Q1076.8 62.8538 1079.39 65.2034 Q1082.02 67.5124 1086.52 67.5124 Q1092.72 67.5124 1096.45 63.1374 Q1100.21 58.7219 1100.21 51.4303 L1100.21 49.7694 L1092.8 49.7694 M1107.67 46.6907 L1107.67 72.576 L1100.21 72.576 L1100.21 65.6895 Q1097.66 69.8214 1093.85 71.8063 Q1090.04 73.7508 1084.54 73.7508 Q1077.57 73.7508 1073.44 69.8619 Q1069.34 65.9325 1069.34 59.3701 Q1069.34 51.7138 1074.45 47.825 Q1079.59 43.9361 1089.76 43.9361 L1100.21 43.9361 L1100.21 43.2069 Q1100.21 38.0623 1096.81 35.2672 Q1093.45 32.4315 1087.33 32.4315 Q1083.44 32.4315 1079.76 33.3632 Q1076.07 34.295 1072.67 36.1584 L1072.67 29.2718 Q1076.76 27.692 1080.61 26.9223 Q1084.45 26.1121 1088.1 26.1121 Q1097.94 26.1121 1102.81 31.2163 Q1107.67 36.3204 1107.67 46.6907 Z" fill="#000000" fill-rule="evenodd" fill-opacity="1" /><path clip-path="url(#clip950)" d="M1149.31 34.1734 Q1148.05 33.4443 1146.55 33.1202 Q1145.1 32.7556 1143.31 32.7556 Q1136.99 32.7556 1133.59 36.8875 Q1130.23 40.9789 1130.23 48.6757 L1130.23 72.576 L1122.74 72.576 L1122.74 27.2059 L1130.23 27.2059 L1130.23 34.2544 Q1132.58 30.1225 1136.35 28.1376 Q1140.11 26.1121 1145.5 26.1121 Q1146.27 26.1121 1147.2 26.2337 Q1148.13 26.3147 1149.27 26.5172 L1149.31 34.1734 Z" fill="#000000" fill-rule="evenodd" fill-opacity="1" /><path clip-path="url(#clip950)" d="M1193.38 45.1919 L1193.38 72.576 L1185.93 72.576 L1185.93 45.4349 Q1185.93 38.994 1183.42 35.7938 Q1180.91 32.5936 1175.88 32.5936 Q1169.85 32.5936 1166.36 36.4419 Q1162.88 40.2903 1162.88 46.9338 L1162.88 72.576 L1155.39 72.576 L1155.39 27.2059 L1162.88 27.2059 L1162.88 34.2544 Q1165.55 30.163 1169.16 28.1376 Q1172.8 26.1121 1177.54 26.1121 Q1185.36 26.1121 1189.37 30.9732 Q1193.38 35.7938 1193.38 45.1919 Z" fill="#000000" fill-rule="evenodd" fill-opacity="1" /><path clip-path="url(#clip950)" d="M1208.25 27.2059 L1215.7 27.2059 L1215.7 72.576 L1208.25 72.576 L1208.25 27.2059 M1208.25 9.54393 L1215.7 9.54393 L1215.7 18.9825 L1208.25 18.9825 L1208.25 9.54393 Z" fill="#000000" fill-rule="evenodd" fill-opacity="1" /><path clip-path="url(#clip950)" d="M1269.01 45.1919 L1269.01 72.576 L1261.56 72.576 L1261.56 45.4349 Q1261.56 38.994 1259.05 35.7938 Q1256.54 32.5936 1251.51 32.5936 Q1245.48 32.5936 1241.99 36.4419 Q1238.51 40.2903 1238.51 46.9338 L1238.51 72.576 L1231.02 72.576 L1231.02 27.2059 L1238.51 27.2059 L1238.51 34.2544 Q1241.18 30.163 1244.79 28.1376 Q1248.44 26.1121 1253.17 26.1121 Q1260.99 26.1121 1265 30.9732 Q1269.01 35.7938 1269.01 45.1919 Z" fill="#000000" fill-rule="evenodd" fill-opacity="1" /><path clip-path="url(#clip950)" d="M1313.74 49.3643 Q1313.74 41.2625 1310.37 36.8065 Q1307.05 32.3505 1301.02 32.3505 Q1295.02 32.3505 1291.66 36.8065 Q1288.34 41.2625 1288.34 49.3643 Q1288.34 57.4256 1291.66 61.8816 Q1295.02 66.3376 1301.02 66.3376 Q1307.05 66.3376 1310.37 61.8816 Q1313.74 57.4256 1313.74 49.3643 M1321.19 66.9452 Q1321.19 78.5308 1316.04 84.1616 Q1310.9 89.8329 1300.29 89.8329 Q1296.36 89.8329 1292.87 89.2252 Q1289.39 88.6581 1286.11 87.4428 L1286.11 80.1917 Q1289.39 81.9741 1292.59 82.8248 Q1295.79 83.6755 1299.11 83.6755 Q1306.44 83.6755 1310.09 79.8271 Q1313.74 76.0193 1313.74 68.282 L1313.74 64.5957 Q1311.43 68.6061 1307.82 70.5911 Q1304.22 72.576 1299.19 72.576 Q1290.85 72.576 1285.74 66.2161 Q1280.64 59.8562 1280.64 49.3643 Q1280.64 38.832 1285.74 32.472 Q1290.85 26.1121 1299.19 26.1121 Q1304.22 26.1121 1307.82 28.0971 Q1311.43 30.082 1313.74 34.0924 L1313.74 27.2059 L1321.19 27.2059 L1321.19 66.9452 Z" fill="#000000" fill-rule="evenodd" fill-opacity="1" /><path clip-path="url(#clip950)" d="M1408.53 16.7545 L1408.53 25.383 Q1404.39 21.5346 1399.7 19.6307 Q1395.04 17.7268 1389.77 17.7268 Q1379.4 17.7268 1373.89 24.0867 Q1368.38 30.4061 1368.38 42.3968 Q1368.38 54.3469 1373.89 60.7069 Q1379.4 67.0263 1389.77 67.0263 Q1395.04 67.0263 1399.7 65.1223 Q1404.39 63.2184 1408.53 59.3701 L1408.53 67.9175 Q1404.23 70.8341 1399.41 72.2924 Q1394.63 73.7508 1389.29 73.7508 Q1375.55 73.7508 1367.65 65.3654 Q1359.75 56.9395 1359.75 42.3968 Q1359.75 27.8135 1367.65 19.4281 Q1375.55 11.0023 1389.29 11.0023 Q1394.71 11.0023 1399.49 12.4606 Q1404.31 13.8784 1408.53 16.7545 Z" fill="#000000" fill-rule="evenodd" fill-opacity="1" /><path clip-path="url(#clip950)" d="M1420.07 54.671 L1420.07 27.2059 L1427.53 27.2059 L1427.53 54.3874 Q1427.53 60.8284 1430.04 64.0691 Q1432.55 67.2693 1437.57 67.2693 Q1443.61 67.2693 1447.09 63.421 Q1450.62 59.5726 1450.62 52.9291 L1450.62 27.2059 L1458.07 27.2059 L1458.07 72.576 L1450.62 72.576 L1450.62 65.6084 Q1447.9 69.7404 1444.3 71.7658 Q1440.73 73.7508 1435.99 73.7508 Q1428.17 73.7508 1424.12 68.8897 Q1420.07 64.0286 1420.07 54.671 M1438.83 26.1121 L1438.83 26.1121 Z" fill="#000000" fill-rule="evenodd" fill-opacity="1" /><path clip-path="url(#clip950)" d="M1499.71 34.1734 Q1498.46 33.4443 1496.96 33.1202 Q1495.5 32.7556 1493.72 32.7556 Q1487.4 32.7556 1484 36.8875 Q1480.63 40.9789 1480.63 48.6757 L1480.63 72.576 L1473.14 72.576 L1473.14 27.2059 L1480.63 27.2059 L1480.63 34.2544 Q1482.98 30.1225 1486.75 28.1376 Q1490.52 26.1121 1495.9 26.1121 Q1496.67 26.1121 1497.61 26.2337 Q1498.54 26.3147 1499.67 26.5172 L1499.71 34.1734 Z" fill="#000000" fill-rule="evenodd" fill-opacity="1" /><path clip-path="url(#clip950)" d="M1502.18 27.2059 L1510.08 27.2059 L1524.26 65.2844 L1538.44 27.2059 L1546.34 27.2059 L1529.32 72.576 L1519.2 72.576 L1502.18 27.2059 Z" fill="#000000" fill-rule="evenodd" fill-opacity="1" /><path clip-path="url(#clip950)" d="M1595.44 48.0275 L1595.44 51.6733 L1561.16 51.6733 Q1561.65 59.3701 1565.78 63.421 Q1569.96 67.4314 1577.37 67.4314 Q1581.66 67.4314 1585.67 66.3781 Q1589.72 65.3249 1593.69 63.2184 L1593.69 70.267 Q1589.68 71.9684 1585.47 72.8596 Q1581.26 73.7508 1576.92 73.7508 Q1566.07 73.7508 1559.71 67.4314 Q1553.39 61.1119 1553.39 50.3365 Q1553.39 39.1965 1559.38 32.6746 Q1565.42 26.1121 1575.63 26.1121 Q1584.78 26.1121 1590.09 32.0264 Q1595.44 37.9003 1595.44 48.0275 M1587.98 45.84 Q1587.9 39.7232 1584.54 36.0774 Q1581.22 32.4315 1575.71 32.4315 Q1569.47 32.4315 1565.7 35.9558 Q1561.98 39.4801 1561.41 45.8805 L1587.98 45.84 Z" fill="#000000" fill-rule="evenodd" fill-opacity="1" /><polyline clip-path="url(#clip952)" style="stroke:#0000ff; stroke-linecap:butt; stroke-linejoin:round; stroke-width:8; stroke-opacity:1; fill:none" points="
  279.759,160.256 283.792,420.07 287.825,629.347 291.859,800.716 295.892,893.844 299.925,961.409 303.959,1004.45 307.992,1039.67 312.025,1067.66 316.058,1084.66 
  320.092,1101.17 324.125,1115.37 328.158,1124.15 332.192,1133.94 336.225,1144.36 340.258,1151.17 344.292,1156.53 348.325,1163.05 352.358,1169.37 356.391,1175.22 
  360.425,1180.61 364.458,1184.38 368.491,1187.66 372.525,1192.23 376.558,1196.67 380.591,1199.57 384.625,1202.4 388.658,1205.73 392.691,1208.69 396.725,1211.5 
  400.758,1214.37 404.791,1216.77 408.824,1219.07 412.858,1221.65 416.891,1223.91 420.924,1225.94 424.958,1228.19 428.991,1230.24 433.024,1232.04 437.058,1234.01 
  441.091,1235.92 445.124,1237.59 449.157,1239.27 453.191,1240.91 457.224,1242.48 461.257,1244.12 465.291,1245.65 469.324,1247.05 473.357,1248.52 477.391,1249.99 
  481.424,1251.36 485.457,1252.7 489.491,1253.99 493.524,1255.26 497.557,1256.56 501.59,1257.79 505.624,1258.98 509.657,1260.18 513.69,1261.36 517.724,1262.51 
  521.757,1263.64 525.79,1264.75 529.824,1265.83 533.857,1266.9 537.89,1267.97 541.923,1269.02 545.957,1270.05 549.99,1271.07 554.023,1272.08 558.057,1273.1 
  562.09,1274.1 566.123,1275.08 570.157,1276.06 574.19,1277.03 578.223,1277.99 582.257,1278.94 586.29,1279.88 590.323,1280.81 594.356,1281.73 598.39,1282.64 
  602.423,1283.54 606.456,1284.43 610.49,1285.3 614.523,1286.18 618.556,1287.05 622.59,1287.91 626.623,1288.76 630.656,1289.6 634.689,1290.43 638.723,1291.26 
  642.756,1292.07 646.789,1292.88 650.823,1293.68 654.856,1294.47 658.889,1295.26 662.923,1296.03 666.956,1296.8 670.989,1297.55 675.022,1298.3 679.056,1299.05 
  683.089,1299.79 687.122,1300.51 691.156,1301.23 695.189,1301.95 699.222,1302.65 703.256,1303.35 707.289,1304.04 711.322,1304.72 715.356,1305.39 719.389,1306.05 
  723.422,1306.71 727.455,1307.36 731.489,1308.01 735.522,1308.65 739.555,1309.28 743.589,1309.9 747.622,1310.52 751.655,1311.13 755.689,1311.73 759.722,1312.33 
  763.755,1312.92 767.788,1313.5 771.822,1314.08 775.855,1314.65 779.888,1315.21 783.922,1315.77 787.955,1316.33 791.988,1316.88 796.022,1317.42 800.055,1317.96 
  804.088,1318.5 808.122,1319.02 812.155,1319.55 816.188,1320.06 820.221,1320.58 824.255,1321.08 828.288,1321.59 832.321,1322.08 836.355,1322.58 840.388,1323.06 
  844.421,1323.54 848.455,1324.02 852.488,1324.49 856.521,1324.95 860.554,1325.41 864.588,1325.86 868.621,1326.31 872.654,1326.75 876.688,1327.19 880.721,1327.63 
  884.754,1328.06 888.788,1328.48 892.821,1328.9 896.854,1329.32 900.888,1329.73 904.921,1330.13 908.954,1330.54 912.987,1330.94 917.021,1331.33 921.054,1331.72 
  925.087,1332.11 929.121,1332.49 933.154,1332.87 937.187,1333.24 941.221,1333.61 945.254,1333.98 949.287,1334.35 953.32,1334.72 957.354,1335.08 961.387,1335.43 
  965.42,1335.79 969.454,1336.14 973.487,1336.49 977.52,1336.83 981.554,1337.17 985.587,1337.51 989.62,1337.85 993.654,1338.18 997.687,1338.51 1001.72,1338.84 
  1005.75,1339.16 1009.79,1339.48 1013.82,1339.8 1017.85,1340.11 1021.89,1340.42 1025.92,1340.73 1029.95,1341.04 1033.99,1341.34 1038.02,1341.64 1042.05,1341.94 
  1046.09,1342.24 1050.12,1342.53 1054.15,1342.82 1058.19,1343.11 1062.22,1343.39 1066.25,1343.68 1070.29,1343.96 1074.32,1344.24 1078.35,1344.52 1082.39,1344.79 
  1086.42,1345.06 1090.45,1345.33 1094.49,1345.6 1098.52,1345.87 1102.55,1346.13 1106.59,1346.4 1110.62,1346.66 1114.65,1346.92 1118.69,1347.18 1122.72,1347.43 
  1126.75,1347.69 1130.79,1347.94 1134.82,1348.19 1138.85,1348.44 1142.89,1348.69 1146.92,1348.93 1150.95,1349.18 1154.99,1349.42 1159.02,1349.67 1163.05,1349.91 
  1167.09,1350.15 1171.12,1350.38 1175.15,1350.62 1179.19,1350.86 1183.22,1351.09 1187.25,1351.32 1191.29,1351.55 1195.32,1351.78 1199.35,1352.01 1203.39,1352.24 
  1207.42,1352.46 1211.45,1352.69 1215.49,1352.91 1219.52,1353.13 1223.55,1353.35 1227.59,1353.57 1231.62,1353.79 1235.65,1354 1239.69,1354.22 1243.72,1354.43 
  1247.75,1354.64 1251.78,1354.86 1255.82,1355.07 1259.85,1355.28 1263.88,1355.49 1267.92,1355.7 1271.95,1355.91 1275.98,1356.11 1280.02,1356.32 1284.05,1356.52 
  1288.08,1356.73 1292.12,1356.93 1296.15,1357.13 1300.18,1357.33 1304.22,1357.53 1308.25,1357.73 1312.28,1357.92 1316.32,1358.12 1320.35,1358.31 1324.38,1358.51 
  1328.42,1358.7 1332.45,1358.89 1336.48,1359.08 1340.52,1359.27 1344.55,1359.45 1348.58,1359.64 1352.62,1359.83 1356.65,1360.01 1360.68,1360.19 1364.72,1360.38 
  1368.75,1360.56 1372.78,1360.74 1376.82,1360.92 1380.85,1361.1 1384.88,1361.28 1388.92,1361.45 1392.95,1361.63 1396.98,1361.8 1401.02,1361.98 1405.05,1362.15 
  1409.08,1362.32 1413.12,1362.5 1417.15,1362.67 1421.18,1362.84 1425.22,1363.01 1429.25,1363.18 1433.28,1363.34 1437.32,1363.51 1441.35,1363.68 1445.38,1363.84 
  1449.42,1364 1453.45,1364.17 1457.48,1364.33 1461.52,1364.49 1465.55,1364.65 1469.58,1364.81 1473.62,1364.97 1477.65,1365.13 1481.68,1365.28 1485.72,1365.44 
  1489.75,1365.6 1493.78,1365.75 1497.82,1365.9 1501.85,1366.06 1505.88,1366.21 1509.92,1366.36 1513.95,1366.51 1517.98,1366.66 1522.02,1366.81 1526.05,1366.96 
  1530.08,1367.1 1534.12,1367.25 1538.15,1367.4 1542.18,1367.54 1546.22,1367.69 1550.25,1367.83 1554.28,1367.97 1558.32,1368.12 1562.35,1368.26 1566.38,1368.4 
  1570.42,1368.54 1574.45,1368.68 1578.48,1368.82 1582.52,1368.96 1586.55,1369.1 1590.58,1369.24 1594.62,1369.37 1598.65,1369.51 1602.68,1369.65 1606.72,1369.78 
  1610.75,1369.92 1614.78,1370.05 1618.82,1370.19 1622.85,1370.32 1626.88,1370.45 1630.92,1370.58 1634.95,1370.71 1638.98,1370.84 1643.02,1370.97 1647.05,1371.1 
  1651.08,1371.23 1655.12,1371.36 1659.15,1371.49 1663.18,1371.62 1667.22,1371.74 1671.25,1371.87 1675.28,1372 1679.32,1372.12 1683.35,1372.25 1687.38,1372.37 
  1691.42,1372.5 1695.45,1372.62 1699.48,1372.74 1703.51,1372.86 1707.55,1372.99 1711.58,1373.11 1715.61,1373.23 1719.65,1373.35 1723.68,1373.47 1727.71,1373.59 
  1731.75,1373.71 1735.78,1373.83 1739.81,1373.94 1743.85,1374.06 1747.88,1374.18 1751.91,1374.29 1755.95,1374.41 1759.98,1374.52 1764.01,1374.64 1768.05,1374.75 
  1772.08,1374.86 1776.11,1374.98 1780.15,1375.09 1784.18,1375.2 1788.21,1375.31 1792.25,1375.42 1796.28,1375.53 1800.31,1375.64 1804.35,1375.75 1808.38,1375.86 
  1812.41,1375.97 1816.45,1376.08 1820.48,1376.19 1824.51,1376.3 1828.55,1376.4 1832.58,1376.51 1836.61,1376.61 1840.65,1376.72 1844.68,1376.83 1848.71,1376.93 
  1852.75,1377.04 1856.78,1377.14 1860.81,1377.24 1864.85,1377.35 1868.88,1377.45 1872.91,1377.55 1876.95,1377.65 1880.98,1377.76 1885.01,1377.86 1889.05,1377.96 
  1893.08,1378.06 1897.11,1378.16 1901.15,1378.26 1905.18,1378.36 1909.21,1378.46 1913.25,1378.55 1917.28,1378.65 1921.31,1378.75 1925.35,1378.85 1929.38,1378.95 
  1933.41,1379.04 1937.45,1379.14 1941.48,1379.24 1945.51,1379.33 1949.55,1379.43 1953.58,1379.52 1957.61,1379.62 1961.65,1379.71 1965.68,1379.8 1969.71,1379.9 
  1973.75,1379.99 1977.78,1380.08 1981.81,1380.18 1985.85,1380.27 1989.88,1380.36 1993.91,1380.45 1997.95,1380.54 2001.98,1380.63 2006.01,1380.72 2010.05,1380.82 
  2014.08,1380.91 2018.11,1380.99 2022.15,1381.08 2026.18,1381.17 2030.21,1381.26 2034.25,1381.35 2038.28,1381.44 2042.31,1381.53 2046.35,1381.62 2050.38,1381.7 
  2054.41,1381.79 2058.45,1381.88 2062.48,1381.96 2066.51,1382.05 2070.55,1382.14 2074.58,1382.22 2078.61,1382.31 2082.65,1382.39 2086.68,1382.47 2090.71,1382.56 
  2094.75,1382.64 2098.78,1382.73 2102.81,1382.81 2106.85,1382.89 2110.88,1382.97 2114.91,1383.06 2118.95,1383.14 2122.98,1383.22 2127.01,1383.3 2131.05,1383.38 
  2135.08,1383.46 2139.11,1383.54 2143.15,1383.62 2147.18,1383.7 2151.21,1383.78 2155.25,1383.86 2159.28,1383.94 2163.31,1384.02 2167.34,1384.1 2171.38,1384.17 
  2175.41,1384.25 2179.44,1384.33 2183.48,1384.41 2187.51,1384.48 2191.54,1384.56 2195.58,1384.64 2199.61,1384.71 2203.64,1384.79 2207.68,1384.87 2211.71,1384.94 
  2215.74,1385.02 2219.78,1385.09 2223.81,1385.16 2227.84,1385.24 2231.88,1385.32 2235.91,1385.39 2239.94,1385.46 2243.98,1385.54 2248.01,1385.61 2252.04,1385.68 
  2256.08,1385.75 2260.11,1385.83 2264.14,1385.9 2268.18,1385.97 2272.21,1386.04 2276.24,1386.12 2280.28,1386.19 2284.31,1386.26 2288.34,1386.33 2292.38,1386.4 
  
  "/>
</svg>
